<svg width="130" height="22" viewBox="0 0 130 22" fill="none" xmlns="http://www.w3.org/2000/svg">
<path d="M11.152 10.668C11.6933 11.0227 12.1507 11.4427 12.524 11.928C12.916 12.3947 13.224 12.9733 13.448 13.664C13.6907 14.4293 13.812 15.204 13.812 15.988C13.8307 16.7533 13.6907 17.472 13.392 18.144C13.112 18.7973 12.6547 19.376 12.02 19.88C11.404 20.3653 10.592 20.7107 9.584 20.916C9.04267 21.0467 8.408 21.1493 7.68 21.224C6.952 21.2987 6.29867 21.336 5.72 21.336C4.992 21.3547 4.236 21.3547 3.452 21.336C2.68667 21.336 1.94 21.2613 1.212 21.112C0.894667 21.0187 0.661333 20.86 0.512 20.636C0.381333 20.3933 0.288 20.1227 0.232 19.824C0.157333 19.656 0.12 19.488 0.12 19.32V3.416C0.12 2.89333 0.222667 2.492 0.428 2.212C0.652 1.91333 0.941333 1.69867 1.296 1.568C1.65067 1.41867 2.052 1.33467 2.5 1.316C2.948 1.27867 3.41467 1.26 3.9 1.26C4.27333 1.26 4.64667 1.26 5.02 1.26C5.412 1.24133 5.804 1.24133 6.196 1.26C6.812 1.27867 7.44667 1.33467 8.1 1.428C8.772 1.50267 9.40667 1.652 10.004 1.876C10.284 1.96933 10.5827 2.1 10.9 2.268C11.2173 2.41733 11.4693 2.604 11.656 2.828C12.2533 3.36933 12.692 4.004 12.972 4.732C13.2707 5.44133 13.4013 6.16933 13.364 6.916C13.3267 7.644 13.1213 8.344 12.748 9.016C12.3933 9.688 11.8613 10.2387 11.152 10.668ZM6.252 18.088C6.83067 18.0507 7.41867 17.9853 8.016 17.892C8.61333 17.7987 9.024 17.6213 9.248 17.36C9.49067 17.0613 9.65867 16.716 9.752 16.324C9.864 15.9133 9.892 15.5027 9.836 15.092C9.79867 14.6627 9.67733 14.2613 9.472 13.888C9.28533 13.496 9.03333 13.188 8.716 12.964C8.28667 12.628 7.792 12.4133 7.232 12.32C6.672 12.208 6.12133 12.152 5.58 12.152C5.31867 12.152 5.076 12.1613 4.852 12.18C4.64667 12.18 4.46 12.208 4.292 12.264C4.14267 12.3013 4.03067 12.3853 3.956 12.516C3.88133 12.6467 3.844 12.8427 3.844 13.104C3.88133 13.5893 3.88133 14.0747 3.844 14.56C3.80667 15.0453 3.788 15.512 3.788 15.96C3.788 16.2213 3.77867 16.5107 3.76 16.828C3.76 17.1267 3.86267 17.3787 4.068 17.584C4.27333 17.7893 4.572 17.9293 4.964 18.004C5.356 18.0787 5.78533 18.1067 6.252 18.088ZM6.812 4.648C6.23333 4.62933 5.748 4.62 5.356 4.62C4.98267 4.60133 4.684 4.62933 4.46 4.704C4.25467 4.76 4.10533 4.9 4.012 5.124C3.93733 5.32933 3.90933 5.64667 3.928 6.076C3.928 6.43067 3.91867 6.78533 3.9 7.14C3.9 7.476 3.9 7.812 3.9 8.148C3.9 8.52133 4.02133 8.80133 4.264 8.988C4.50667 9.156 4.80533 9.25867 5.16 9.296C5.53333 9.33333 5.916 9.33333 6.308 9.296C6.71867 9.25867 7.07333 9.212 7.372 9.156C8.044 9.044 8.55733 8.82 8.912 8.484C9.28533 8.12933 9.5 7.616 9.556 6.944C9.63067 6.104 9.40667 5.52533 8.884 5.208C8.38 4.872 7.68933 4.68533 6.812 4.648ZM16.5739 18.032L16.6019 15.82L16.6299 11.704C16.6486 11.1067 16.6579 10.4907 16.6579 9.856C16.6579 9.22133 16.6579 8.568 16.6579 7.896C16.6579 7.224 16.6579 6.62667 16.6579 6.104C16.6579 5.58133 16.6766 4.99333 16.7139 4.34V4.228C16.7326 4.04133 16.7419 3.85467 16.7419 3.668C16.7606 3.46267 16.7699 3.25733 16.7699 3.052C16.7886 2.716 16.8913 2.352 17.0779 1.96C17.2086 1.69867 17.4046 1.47467 17.6659 1.288C17.9646 1.13867 18.2539 1.064 18.5339 1.064C18.6833 1.064 18.8139 1.07333 18.9259 1.092C19.0566 1.092 19.1779 1.10133 19.2899 1.12C19.5326 1.15733 19.7473 1.26933 19.9339 1.456C20.0459 1.54933 20.1486 1.69867 20.2419 1.904C20.2793 2.016 20.3073 2.128 20.3259 2.24C20.3633 2.33333 20.3913 2.436 20.4099 2.548C20.4286 2.67867 20.4379 2.8 20.4379 2.912C20.4566 3.024 20.4659 3.136 20.4659 3.248C20.4659 3.37867 20.4566 3.5 20.4379 3.612C20.4379 3.70533 20.4379 3.808 20.4379 3.92V4.396L20.2699 18.928V19.208C20.2699 19.264 20.2606 19.3387 20.2419 19.432C20.2419 19.5067 20.2326 19.6 20.2139 19.712C20.1766 19.8053 20.1393 19.908 20.1019 20.02C20.0833 20.1133 20.0553 20.216 20.0179 20.328C19.9619 20.4213 19.8966 20.5147 19.8219 20.608C19.7659 20.6827 19.6913 20.7573 19.5979 20.832C19.4486 20.9813 19.2059 21.084 18.8699 21.14C18.3659 21.252 17.8899 21.2053 17.4419 21C17.2179 20.8507 17.0593 20.664 16.9659 20.44C16.9099 20.384 16.8819 20.328 16.8819 20.272C16.8633 20.2347 16.8446 20.2067 16.8259 20.188C16.8073 20.1693 16.7886 20.1413 16.7699 20.104C16.7326 20.0107 16.7046 19.9173 16.6859 19.824C16.6673 19.712 16.6579 19.6 16.6579 19.488C16.6393 19.3947 16.6206 19.3013 16.6019 19.208C16.6019 19.1147 16.5926 19.0213 16.5739 18.928C16.5553 18.7787 16.5553 18.62 16.5739 18.452V18.032ZM38.0576 12.852C38.1509 13.1133 38.2163 13.412 38.2536 13.748C38.3096 14.0653 38.3376 14.392 38.3376 14.728C38.3376 15.064 38.3096 15.4 38.2536 15.736C38.2163 16.0533 38.1603 16.3333 38.0856 16.576C37.7869 17.6213 37.1896 18.4987 36.2936 19.208C35.3976 19.8987 34.3709 20.4027 33.2136 20.72C32.0749 21.0373 30.8896 21.1493 29.6576 21.056C28.4443 20.9627 27.3616 20.6547 26.4096 20.132C25.8123 19.796 25.2989 19.3853 24.8696 18.9C24.4403 18.4147 24.0763 17.8733 23.7776 17.276C23.6656 17.0707 23.5909 16.8373 23.5536 16.576C23.5349 16.296 23.5629 16.0347 23.6376 15.792C23.7123 15.5307 23.8336 15.3067 24.0016 15.12C24.1696 14.9147 24.4029 14.7747 24.7016 14.7C24.8883 14.6627 25.0936 14.644 25.3176 14.644C25.5603 14.644 25.7936 14.6813 26.0176 14.756C26.2416 14.812 26.4469 14.9147 26.6336 15.064C26.8203 15.1947 26.9696 15.3813 27.0816 15.624C27.2869 16.016 27.5763 16.38 27.9496 16.716C28.3416 17.0333 28.7523 17.2947 29.1816 17.5C29.7976 17.7053 30.4136 17.7893 31.0296 17.752C31.6643 17.7147 32.2336 17.5747 32.7376 17.332C33.2603 17.0893 33.6803 16.7627 33.9976 16.352C34.3149 15.9227 34.4736 15.4373 34.4736 14.896C34.4736 14.448 34.4083 14.084 34.2776 13.804C34.1469 13.5053 33.9603 13.2627 33.7176 13.076C33.4936 12.8707 33.2136 12.7027 32.8776 12.572C32.5603 12.4413 32.2056 12.3293 31.8136 12.236C31.3656 12.1427 30.9083 12.0773 30.4416 12.04C29.9936 12.0027 29.5363 11.956 29.0696 11.9C28.6029 11.844 28.1456 11.7693 27.6976 11.676C27.2496 11.5827 26.8109 11.4427 26.3816 11.256C25.5229 10.9013 24.8696 10.36 24.4216 9.632C23.9736 8.904 23.7029 8.12 23.6096 7.28C23.5349 6.44 23.6376 5.60933 23.9176 4.788C24.1976 3.948 24.6456 3.22933 25.2616 2.632C25.8589 2.09067 26.5683 1.708 27.3896 1.484C28.2296 1.24133 29.1536 1.10133 30.1616 1.064C30.7216 1.04533 31.2816 1.064 31.8416 1.12C32.4203 1.176 32.9709 1.26933 33.4936 1.4C34.0349 1.53067 34.5296 1.69867 34.9776 1.904C35.4443 2.10933 35.8456 2.352 36.1816 2.632C36.4243 2.81867 36.6669 3.07067 36.9096 3.388C37.1523 3.68667 37.3389 4.01333 37.4696 4.368C37.6003 4.704 37.6376 5.03067 37.5816 5.348C37.5443 5.66533 37.3483 5.936 36.9936 6.16C36.6949 6.34667 36.4056 6.43067 36.1256 6.412C35.8643 6.37467 35.6123 6.29067 35.3696 6.16C35.1269 6.01067 34.8936 5.84267 34.6696 5.656C34.4456 5.46933 34.2403 5.30133 34.0536 5.152C33.5496 4.77867 32.9243 4.52667 32.1776 4.396C31.4309 4.26533 30.7309 4.23733 30.0776 4.312C29.6669 4.368 29.2843 4.46133 28.9296 4.592C28.5749 4.72267 28.2669 4.9 28.0056 5.124C27.7629 5.348 27.5669 5.628 27.4176 5.964C27.2869 6.28133 27.2403 6.64533 27.2776 7.056C27.2963 7.35467 27.3803 7.60667 27.5296 7.812C27.6976 8.01733 27.8936 8.18533 28.1176 8.316C28.3603 8.44667 28.6216 8.54933 28.9016 8.624C29.1816 8.69867 29.4616 8.75467 29.7416 8.792C30.5816 8.904 31.4216 8.988 32.2616 9.044C33.1016 9.1 33.9229 9.28667 34.7256 9.604C35.5469 9.92133 36.2469 10.3507 36.8256 10.892C37.4043 11.4333 37.8149 12.0867 38.0576 12.852ZM58.4884 18.984C58.4697 19.208 58.4417 19.4413 58.4044 19.684C58.3671 19.9267 58.3017 20.1507 58.2084 20.356C58.1151 20.58 57.9937 20.748 57.8444 20.86C57.6391 21.0467 57.3964 21.1493 57.1164 21.168C56.8551 21.2613 56.6031 21.2893 56.3604 21.252C56.1177 21.2147 55.8937 21.1493 55.6884 21.056C55.4271 20.888 55.2311 20.692 55.1004 20.468C54.9884 20.2253 54.9044 19.9733 54.8484 19.712C54.7924 19.4507 54.7644 19.18 54.7644 18.9C54.7644 18.62 54.7644 18.3587 54.7644 18.116V15.932L54.7364 11.648C54.7364 11.3493 54.7364 11.116 54.7364 10.948C54.7364 10.78 54.7364 10.6307 54.7364 10.5C54.7364 10.3507 54.7271 10.192 54.7084 10.024C54.7084 9.83733 54.7084 9.576 54.7084 9.24C54.7084 9.184 54.7084 9.09067 54.7084 8.96C54.7271 8.81067 54.7177 8.428 54.6804 7.812C53.9524 9.02533 53.3457 10.0053 52.8604 10.752C52.3937 11.48 51.9924 12.0493 51.6564 12.46C51.3391 12.852 51.0591 13.1227 50.8164 13.272C50.5737 13.4027 50.3217 13.4773 50.0604 13.496C49.9111 13.5147 49.7617 13.4867 49.6124 13.412C49.4631 13.3373 49.3137 13.244 49.1644 13.132C49.0337 13.02 48.9031 12.908 48.7724 12.796C48.6604 12.6653 48.5671 12.544 48.4924 12.432C48.0444 11.872 47.5404 11.2 46.9804 10.416C46.4204 9.632 45.8417 8.68 45.2444 7.56C45.2444 7.57867 45.2351 7.88667 45.2164 8.484C45.2164 9.08133 45.2164 9.828 45.2164 10.724C45.2164 11.6013 45.2071 12.5533 45.1884 13.58C45.1884 14.588 45.1791 15.5307 45.1604 16.408C45.1604 17.2853 45.1511 18.0227 45.1324 18.62C45.1137 19.1987 45.0951 19.488 45.0764 19.488C45.0764 19.8053 45.0017 20.104 44.8524 20.384C44.7031 20.6453 44.4977 20.86 44.2364 21.028C43.9937 21.196 43.7044 21.2893 43.3684 21.308C43.0324 21.3267 42.6684 21.2333 42.2764 21.028C42.0337 20.8787 41.8471 20.664 41.7164 20.384C41.6044 20.104 41.5297 19.8427 41.4924 19.6C41.4737 19.3387 41.4551 19.0867 41.4364 18.844C41.4364 18.6013 41.4364 18.3493 41.4364 18.088L41.4644 15.904L41.4924 11.592V7.84C41.4924 6.216 41.5484 4.62 41.6604 3.052C41.6604 2.84667 41.6791 2.66 41.7164 2.492C41.7724 2.30533 41.8377 2.128 41.9124 1.96C42.0617 1.66133 42.2577 1.43733 42.5004 1.288C42.7804 1.12 43.0791 1.036 43.3964 1.036C43.5271 1.036 43.6484 1.04533 43.7604 1.064C43.8911 1.064 44.0124 1.07333 44.1244 1.092C44.4977 1.16667 44.8151 1.39067 45.0764 1.764C45.3564 2.11867 45.6177 2.42667 45.8604 2.688C46.0097 2.856 46.1684 3.06133 46.3364 3.304C46.5044 3.54667 46.6724 3.79867 46.8404 4.06C47.0084 4.32133 47.1671 4.57333 47.3164 4.816C47.4657 5.05867 47.5964 5.27333 47.7084 5.46C48.1937 6.244 48.6231 6.96267 48.9964 7.616C49.3884 8.26933 49.7524 8.82933 50.0884 9.296C50.1444 9.24 50.2097 9.16533 50.2844 9.072C50.3591 8.96 50.4337 8.848 50.5084 8.736C50.6017 8.60533 50.6764 8.484 50.7324 8.372C50.8071 8.26 50.8631 8.16667 50.9004 8.092C51.0871 7.79333 51.2737 7.504 51.4604 7.224C51.6471 6.92533 51.8431 6.61733 52.0484 6.3C52.2724 5.964 52.4964 5.6 52.7204 5.208C52.9631 4.816 53.2431 4.368 53.5604 3.864C53.6911 3.64 53.8591 3.36933 54.0644 3.052C54.2697 2.73467 54.5031 2.42667 54.7644 2.128C55.0257 1.82933 55.2964 1.57733 55.5764 1.372C55.8751 1.148 56.1737 1.036 56.4724 1.036C56.6217 1.036 56.7524 1.04533 56.8644 1.064C56.9764 1.064 57.0884 1.07333 57.2004 1.092C57.4244 1.11067 57.6391 1.21333 57.8444 1.4C57.9937 1.54933 58.1057 1.708 58.1804 1.876C58.2551 2.11867 58.3017 2.324 58.3204 2.492C58.3391 2.62267 58.3484 2.744 58.3484 2.856C58.3671 2.968 58.3764 3.08 58.3764 3.192C58.3764 4.23733 58.3857 5.27333 58.4044 6.3C58.4231 7.32667 58.4324 8.36267 58.4324 9.408C58.4324 10.6773 58.4324 11.984 58.4324 13.328C58.4511 14.672 58.4604 15.9787 58.4604 17.248C58.4604 17.5093 58.4697 17.7893 58.4884 18.088C58.5071 18.3867 58.5071 18.6853 58.4884 18.984ZM78.0444 19.096C78.0631 19.208 78.0724 19.32 78.0724 19.432C78.0911 19.5253 78.1004 19.6373 78.1004 19.768C78.1004 19.992 78.0351 20.1973 77.9044 20.384C77.8484 20.4773 77.7738 20.5707 77.6804 20.664C77.5871 20.7387 77.4751 20.804 77.3444 20.86C76.8778 21.1213 76.3831 21.2147 75.8604 21.14C75.5991 21.0653 75.3658 20.944 75.1604 20.776C75.1231 20.7387 75.0951 20.72 75.0764 20.72C75.0578 20.7013 75.0391 20.6733 75.0204 20.636C75.0018 20.6173 74.9831 20.5987 74.9644 20.58C74.9458 20.5427 74.9178 20.5147 74.8804 20.496C74.7871 20.4027 74.7124 20.3187 74.6564 20.244C74.6004 20.1507 74.5444 20.0573 74.4884 19.964C74.4511 19.8707 74.4044 19.7867 74.3484 19.712C74.3111 19.6187 74.2644 19.5253 74.2084 19.432C74.1711 19.3573 74.1338 19.292 74.0964 19.236C74.0591 19.1613 74.0311 19.0867 74.0124 19.012C73.9378 18.844 73.8911 18.6947 73.8724 18.564L73.2844 17.192C71.9964 17.192 70.7084 17.2013 69.4204 17.22C68.1511 17.22 66.8724 17.2107 65.5844 17.192L64.9964 18.564C64.9591 18.6387 64.9311 18.7133 64.9124 18.788C64.9124 18.8627 64.8938 18.9373 64.8564 19.012C64.8191 19.0867 64.7818 19.1613 64.7444 19.236C64.7258 19.292 64.6978 19.3573 64.6604 19.432C64.6044 19.5253 64.5484 19.6187 64.4924 19.712C64.4551 19.7867 64.4084 19.8707 64.3524 19.964C64.3151 20.0573 64.2684 20.1507 64.2124 20.244C64.1564 20.3187 64.0818 20.4027 63.9884 20.496C63.9511 20.5147 63.9231 20.5427 63.9044 20.58C63.8858 20.5987 63.8671 20.6173 63.8484 20.636C63.8298 20.6733 63.8111 20.7013 63.7924 20.72C63.7738 20.72 63.7458 20.7387 63.7084 20.776C63.5031 20.944 63.2698 21.0653 63.0084 21.14C62.4858 21.2147 61.9911 21.1213 61.5244 20.86C61.3938 20.804 61.2818 20.7387 61.1884 20.664C61.0951 20.5707 61.0204 20.4773 60.9644 20.384C60.8338 20.1973 60.7684 19.992 60.7684 19.768C60.7684 19.6373 60.7684 19.5253 60.7684 19.432C60.7871 19.32 60.8058 19.208 60.8244 19.096C60.8618 18.928 60.9084 18.76 60.9644 18.592C61.0204 18.424 61.0484 18.34 61.0484 18.34L66.8724 4.004L67.0404 3.556C67.0778 3.444 67.1244 3.34133 67.1804 3.248C67.2364 3.15467 67.2831 3.04267 67.3204 2.912C67.4138 2.66933 67.5164 2.45467 67.6284 2.268C67.6844 2.156 67.7498 2.05333 67.8244 1.96C67.8991 1.86667 67.9738 1.77333 68.0484 1.68C68.1604 1.53067 68.3191 1.40933 68.5244 1.316C68.7858 1.22267 69.0844 1.176 69.4204 1.176C69.7751 1.176 70.0831 1.22267 70.3444 1.316C70.5498 1.40933 70.7084 1.53067 70.8204 1.68C70.9511 1.848 71.0911 2.044 71.2404 2.268C71.3524 2.45467 71.4551 2.66933 71.5484 2.912C71.5858 3.04267 71.6324 3.15467 71.6884 3.248C71.7444 3.34133 71.7911 3.444 71.8284 3.556L71.9964 4.004L77.8204 18.34C77.8204 18.34 77.8484 18.424 77.9044 18.592C77.9604 18.76 78.0071 18.928 78.0444 19.096ZM71.4084 12.236C71.1658 11.6947 70.9138 11.1347 70.6524 10.556C70.4098 9.97733 70.1484 9.38933 69.8684 8.792C69.7938 8.624 69.7191 8.456 69.6444 8.288C69.5698 8.10133 69.4951 7.924 69.4204 7.756C69.3644 7.924 69.2991 8.10133 69.2244 8.288C69.1498 8.456 69.0751 8.624 69.0004 8.792C68.7204 9.38933 68.4498 9.97733 68.1884 10.556C67.9458 11.1347 67.7031 11.6947 67.4604 12.236L66.9564 13.468H71.9124L71.4084 12.236ZM95.0746 9.744C95.1119 10.36 95.1026 10.9947 95.0466 11.648C95.0092 12.3013 94.9439 12.936 94.8506 13.552C94.6639 14.616 94.3186 15.652 93.8146 16.66C93.3106 17.668 92.5732 18.5267 91.6026 19.236C90.5946 19.9827 89.4466 20.496 88.1586 20.776C86.8706 21.0373 85.5919 21.196 84.3226 21.252C83.8932 21.2893 83.4546 21.2987 83.0066 21.28C82.5772 21.28 82.1572 21.2333 81.7466 21.14C81.4106 21.084 81.1586 20.9813 80.9906 20.832C80.8972 20.776 80.8226 20.7013 80.7666 20.608C80.7106 20.5147 80.6639 20.4213 80.6266 20.328C80.5706 20.2347 80.5239 20.1413 80.4866 20.048C80.4679 19.936 80.4399 19.824 80.4026 19.712C80.3839 19.6187 80.3652 19.5347 80.3466 19.46C80.3466 19.3667 80.3466 19.2827 80.3466 19.208V3.22C80.3466 3.08933 80.3466 2.968 80.3466 2.856C80.3466 2.744 80.3652 2.632 80.4026 2.52C80.4399 2.25867 80.4959 2.044 80.5706 1.876C80.6452 1.652 80.7479 1.49333 80.8786 1.4C80.9906 1.30667 81.1026 1.24133 81.2146 1.204C81.3266 1.148 81.4292 1.10133 81.5226 1.064C81.6346 1.02667 81.7466 1.02667 81.8586 1.064C81.9892 1.08267 82.1292 1.05467 82.2786 0.979999L86.9546 1.092C88.1866 1.12933 89.2879 1.41867 90.2586 1.96C91.2292 2.48267 92.0599 3.15467 92.7506 3.976C93.4412 4.79733 93.9826 5.72133 94.3746 6.748C94.7666 7.756 94.9999 8.75467 95.0746 9.744ZM89.8666 15.064C90.2212 14.504 90.4826 13.86 90.6506 13.132C90.8186 12.404 90.8932 11.6667 90.8746 10.92C90.8559 10.1547 90.7532 9.41733 90.5666 8.708C90.3799 7.98 90.1186 7.336 89.7826 6.776C89.5212 6.36533 89.1852 6.02933 88.7746 5.768C88.3639 5.50667 87.9066 5.31067 87.4026 5.18C86.8986 5.03067 86.3572 4.928 85.7786 4.872C85.2186 4.816 84.6679 4.788 84.1266 4.788C84.1452 5.32933 84.1546 5.852 84.1546 6.356C84.1546 6.86 84.1546 7.392 84.1546 7.952C84.1359 8.624 84.1266 9.27733 84.1266 9.912C84.1266 10.5467 84.1266 11.1627 84.1266 11.76V17.472C84.7052 17.4533 85.2559 17.4253 85.7786 17.388C86.3199 17.332 86.8332 17.22 87.3186 17.052C87.8226 16.884 88.2799 16.6507 88.6906 16.352C89.1199 16.0347 89.5119 15.6053 89.8666 15.064ZM101.218 4.536L101.162 8.932H102.282C103.047 8.91333 103.728 8.904 104.326 8.904C104.923 8.904 105.586 8.91333 106.314 8.932H106.454C106.678 8.932 106.892 8.94133 107.098 8.96C107.322 8.96 107.536 8.96 107.742 8.96C107.966 8.97867 108.18 9.016 108.386 9.072C108.591 9.10933 108.796 9.156 109.002 9.212C109.319 9.324 109.58 9.492 109.786 9.716C109.972 9.95867 110.066 10.2293 110.066 10.528C110.066 10.6213 110.066 10.7333 110.066 10.864C110.066 10.976 110.047 11.0787 110.01 11.172C109.972 11.3773 109.851 11.564 109.646 11.732C109.552 11.8627 109.375 11.956 109.114 12.012C108.871 12.0867 108.628 12.1333 108.386 12.152C108.124 12.208 107.863 12.236 107.602 12.236H106.286L101.106 12.264L101.05 17.752L106.622 17.808H107.938C108.087 17.808 108.227 17.808 108.358 17.808C108.488 17.808 108.61 17.8173 108.722 17.836C108.871 17.8733 109.002 17.9013 109.114 17.92C109.244 17.92 109.366 17.9387 109.478 17.976C109.702 18.0507 109.888 18.1533 110.038 18.284C110.224 18.4707 110.346 18.6667 110.402 18.872C110.42 18.9653 110.43 19.068 110.43 19.18C110.448 19.2733 110.448 19.376 110.43 19.488C110.43 19.7867 110.336 20.0573 110.15 20.3C109.926 20.5613 109.664 20.7293 109.366 20.804C108.974 20.972 108.544 21.056 108.078 21.056C107.872 21.0747 107.658 21.084 107.434 21.084C107.21 21.084 106.995 21.0933 106.79 21.112H106.622C105.166 21.1493 103.654 21.1493 102.086 21.112C101.712 21.112 101.414 21.1027 101.19 21.084C100.966 21.084 100.76 21.084 100.574 21.084C100.406 21.084 100.228 21.084 100.042 21.084C99.8551 21.084 99.6124 21.084 99.3137 21.084C98.8844 21.1213 98.5297 21.0467 98.2497 20.86C98.0444 20.7293 97.8857 20.552 97.7737 20.328C97.7177 20.272 97.6897 20.216 97.6897 20.16C97.6711 20.1227 97.6524 20.0947 97.6337 20.076C97.6151 20.0573 97.5964 20.0293 97.5777 19.992C97.5404 19.8987 97.5124 19.8053 97.4937 19.712C97.4751 19.6 97.4657 19.4973 97.4657 19.404C97.4471 19.3107 97.4284 19.2173 97.4097 19.124C97.4097 19.0307 97.4004 18.9373 97.3817 18.844V18.396C97.3817 18.3213 97.3817 18.2467 97.3817 18.172C97.4004 18.0973 97.4097 18.0227 97.4097 17.948V15.764L97.4657 11.732V8.008C97.4657 7.336 97.4657 6.73867 97.4657 6.216C97.4844 5.69333 97.5031 5.124 97.5217 4.508V4.368C97.5404 4.16267 97.5497 3.976 97.5497 3.808C97.5684 3.62133 97.5777 3.43467 97.5777 3.248C97.5964 2.87467 97.6991 2.51067 97.8857 2.156C97.9604 2.00667 98.0351 1.876 98.1097 1.764C98.2031 1.652 98.3244 1.55867 98.4737 1.484C98.7537 1.316 99.0431 1.232 99.3417 1.232C99.4911 1.232 99.6031 1.24133 99.6777 1.26V1.232C100.014 1.232 100.284 1.232 100.49 1.232C100.695 1.232 100.891 1.232 101.078 1.232C101.283 1.232 101.498 1.232 101.722 1.232C101.946 1.21333 102.254 1.204 102.646 1.204C103.392 1.18533 104.102 1.176 104.774 1.176C105.446 1.176 106.136 1.18533 106.846 1.204H106.958C107.163 1.22267 107.378 1.232 107.602 1.232C107.826 1.232 108.04 1.24133 108.246 1.26C108.451 1.26 108.656 1.288 108.862 1.344C109.067 1.38133 109.272 1.43733 109.478 1.512C109.795 1.60533 110.056 1.764 110.262 1.988C110.43 2.24933 110.514 2.51067 110.514 2.772C110.514 2.884 110.514 2.996 110.514 3.108C110.514 3.20133 110.495 3.29467 110.458 3.388C110.439 3.57467 110.327 3.77067 110.122 3.976C110.047 4.01333 109.963 4.06 109.87 4.116C109.795 4.172 109.702 4.21867 109.59 4.256C109.478 4.29333 109.356 4.32133 109.226 4.34C109.114 4.34 109.002 4.34933 108.89 4.368C108.74 4.40533 108.6 4.424 108.47 4.424C108.358 4.424 108.227 4.424 108.078 4.424H106.818L101.218 4.452V4.536ZM129.297 2.52C129.39 2.94933 129.4 3.388 129.325 3.836C129.269 4.26533 129.185 4.65733 129.073 5.012C128.849 5.74 128.588 6.552 128.289 7.448C127.99 8.344 127.692 9.24 127.393 10.136C127.094 11.032 126.805 11.8813 126.525 12.684C126.245 13.468 126.012 14.1213 125.825 14.644C125.638 15.1293 125.442 15.68 125.237 16.296C125.032 16.912 124.78 17.5187 124.481 18.116C124.201 18.6947 123.865 19.2267 123.473 19.712C123.1 20.1973 122.642 20.552 122.101 20.776C121.56 21 121.065 21.056 120.617 20.944C120.169 20.8133 119.768 20.5893 119.413 20.272C119.058 19.936 118.732 19.5253 118.433 19.04C118.153 18.536 117.901 18.0227 117.677 17.5C117.453 16.9773 117.248 16.4733 117.061 15.988C116.874 15.484 116.706 15.0547 116.557 14.7C115.978 13.4307 115.456 12.0867 114.989 10.668C114.522 9.24933 114.046 7.896 113.561 6.608C113.43 6.23467 113.281 5.78667 113.113 5.264C112.945 4.72267 112.833 4.19067 112.777 3.668C112.74 3.12667 112.805 2.64133 112.973 2.212C113.141 1.764 113.496 1.456 114.037 1.288C114.149 1.25067 114.261 1.22267 114.373 1.204C114.504 1.16667 114.625 1.13867 114.737 1.12C114.868 1.12 114.989 1.12933 115.101 1.148C115.213 1.16667 115.334 1.21333 115.465 1.288C115.558 1.32533 115.652 1.372 115.745 1.428C115.838 1.46533 115.922 1.52133 115.997 1.596C116.072 1.68933 116.137 1.78267 116.193 1.876C116.268 1.96933 116.342 2.06267 116.417 2.156C116.473 2.28667 116.52 2.408 116.557 2.52C116.613 2.61333 116.66 2.70667 116.697 2.8C116.734 2.93067 116.781 3.052 116.837 3.164C116.893 3.25733 116.94 3.35067 116.977 3.444L117.145 3.92L121.177 15.428L125.153 3.948L125.349 3.472C125.386 3.37867 125.424 3.28533 125.461 3.192C125.498 3.08 125.536 2.95867 125.573 2.828C125.61 2.73467 125.648 2.64133 125.685 2.548C125.741 2.436 125.806 2.324 125.881 2.212C125.937 2.11867 125.993 2.02533 126.049 1.932C126.124 1.82 126.198 1.71733 126.273 1.624C126.329 1.54933 126.394 1.484 126.469 1.428C126.562 1.372 126.646 1.32533 126.721 1.288C126.87 1.21333 127.001 1.16667 127.113 1.148C127.244 1.12933 127.356 1.12 127.449 1.12C127.561 1.13867 127.673 1.16667 127.785 1.204C127.916 1.22267 128.037 1.25067 128.149 1.288C128.504 1.38133 128.765 1.54 128.933 1.764C129.12 1.988 129.241 2.24 129.297 2.52Z" fill="black"/>
</svg>
